<mxfile host="app.diagrams.net" agent="Mozilla/5.0 (Macintosh; Intel Mac OS X 10_15_7) AppleWebKit/537.36 (KHTML, like Gecko) Chrome/128.0.0.0 Safari/537.36 Edg/128.0.0.0" version="24.8.0">
  <diagram id="3228e29e-7158-1315-38df-8450db1d8a1d" name="Page-1">
    <mxGraphModel dx="1136" dy="769" grid="1" gridSize="10" guides="1" tooltips="1" connect="1" arrows="1" fold="1" page="1" pageScale="1" pageWidth="1169" pageHeight="827" background="none" math="0" shadow="0">
      <root>
        <mxCell id="0" />
        <mxCell id="1" parent="0" />
        <mxCell id="6TNa9vd-8Buox02Ec350-21554" value="" style="ellipse;fillColor=#F08705;opacity=60;strokeColor=none;html=1;fontColor=#FFFFFF;" vertex="1" parent="1">
          <mxGeometry x="190" y="320" width="500" height="500" as="geometry" />
        </mxCell>
        <mxCell id="6TNa9vd-8Buox02Ec350-21555" value="" style="ellipse;fillColor=#12AAB5;opacity=60;strokeColor=none;html=1;fontColor=#FFFFFF;" vertex="1" parent="1">
          <mxGeometry x="30" y="30" width="500" height="500" as="geometry" />
        </mxCell>
        <mxCell id="6TNa9vd-8Buox02Ec350-21556" value="" style="ellipse;fillColor=#e85642;opacity=60;strokeColor=none;html=1;fontColor=#FFFFFF;" vertex="1" parent="1">
          <mxGeometry x="340" y="30" width="500" height="500" as="geometry" />
        </mxCell>
        <mxCell id="6TNa9vd-8Buox02Ec350-21557" value="AB&lt;sup&gt;I&lt;/sup&gt;C&lt;sup&gt;I&lt;/sup&gt;" style="text;fontSize=24;align=center;verticalAlign=middle;html=1;fontColor=#FFFFFF;" vertex="1" parent="1">
          <mxGeometry x="150" y="240" width="190" height="70" as="geometry" />
        </mxCell>
        <mxCell id="6TNa9vd-8Buox02Ec350-21560" value="ABC&lt;sup&gt;I&lt;/sup&gt;" style="text;align=center;html=1;fontColor=#FFFFFF;fontSize=16;" vertex="1" parent="1">
          <mxGeometry x="420" y="210" width="40" height="40" as="geometry" />
        </mxCell>
        <mxCell id="6TNa9vd-8Buox02Ec350-21561" value="AB&lt;sup&gt;I&lt;/sup&gt;C" style="text;align=center;html=1;fontColor=#FFFFFF;fontSize=16;" vertex="1" parent="1">
          <mxGeometry x="300" y="430" width="40" height="40" as="geometry" />
        </mxCell>
        <mxCell id="6TNa9vd-8Buox02Ec350-21562" value="A&lt;sup&gt;I&lt;/sup&gt;BC" style="text;align=center;html=1;fontColor=#FFFFFF;fontSize=16;" vertex="1" parent="1">
          <mxGeometry x="550" y="430" width="40" height="40" as="geometry" />
        </mxCell>
        <mxCell id="6TNa9vd-8Buox02Ec350-21563" value="ABC" style="text;align=center;html=1;fontColor=#FFFFFF;fontSize=16;" vertex="1" parent="1">
          <mxGeometry x="420" y="360" width="40" height="40" as="geometry" />
        </mxCell>
        <mxCell id="6TNa9vd-8Buox02Ec350-21565" value="&lt;font style=&quot;font-size: 24px;&quot;&gt;A&lt;/font&gt;" style="text;html=1;align=center;verticalAlign=middle;whiteSpace=wrap;rounded=0;" vertex="1" parent="1">
          <mxGeometry x="90" y="40" width="60" height="30" as="geometry" />
        </mxCell>
        <mxCell id="6TNa9vd-8Buox02Ec350-21566" value="&lt;font style=&quot;font-size: 24px;&quot;&gt;B&lt;/font&gt;" style="text;html=1;align=center;verticalAlign=middle;whiteSpace=wrap;rounded=0;" vertex="1" parent="1">
          <mxGeometry x="750" y="40" width="60" height="30" as="geometry" />
        </mxCell>
        <mxCell id="6TNa9vd-8Buox02Ec350-21567" value="&lt;font style=&quot;font-size: 24px;&quot;&gt;C&lt;/font&gt;" style="text;html=1;align=center;verticalAlign=middle;whiteSpace=wrap;rounded=0;" vertex="1" parent="1">
          <mxGeometry x="420" y="840" width="80" height="40" as="geometry" />
        </mxCell>
      </root>
    </mxGraphModel>
  </diagram>
</mxfile>
